<?xml version="1.0" standalone="no"?>
<!DOCTYPE svg PUBLIC "-//W3C//DTD SVG 20010904//EN"
 "http://www.w3.org/TR/2001/REC-SVG-20010904/DTD/svg10.dtd">
<svg version="1.0" xmlns="http://www.w3.org/2000/svg"
 width="500.000000pt" height="500.000000pt" viewBox="0 0 500.000000 500.000000"
 preserveAspectRatio="xMidYMid meet">
<metadata>
Created by potrace 1.11, written by Peter Selinger 2001-2013
</metadata>
<g transform="translate(0.000000,500.000000) scale(0.100000,-0.100000)"
fill="#000000" stroke="none">
<path d="M662 3932 c-15 -16 -32 -40 -38 -53 -7 -13 -24 -49 -38 -80 -14 -31
-48 -86 -76 -122 -54 -72 -186 -208 -238 -247 -97 -73 -162 -132 -193 -177
l-30 -43 43 -43 c24 -23 88 -80 143 -126 146 -123 275 -256 343 -357 76 -113
109 -152 144 -170 59 -31 125 -11 158 49 33 59 32 133 -4 209 -43 93 -107 164
-345 385 l-63 59 67 70 c251 260 296 329 296 454 0 69 -20 119 -68 165 -60 58
-70 61 -101 27z"/>
<path d="M4200 3932 c-74 -57 -100 -107 -101 -192 -2 -111 61 -212 253 -408
l112 -114 -55 -51 c-283 -263 -343 -335 -373 -451 -29 -110 15 -201 103 -213
48 -7 97 20 139 75 15 21 29 39 32 42 3 3 25 36 49 73 53 82 209 243 341 353
134 112 183 161 174 176 -24 43 -86 105 -166 169 -92 73 -211 187 -258 248
-14 18 -35 44 -48 59 -12 15 -34 52 -48 82 -57 121 -94 180 -113 180 -3 0 -22
-13 -41 -28z"/>
<path d="M2607 3683 c-3 -10 -34 -94 -70 -188 -35 -93 -99 -276 -142 -405 -84
-255 -146 -437 -177 -514 -40 -103 -221 -457 -248 -486 -69 -74 -149 -5 -166
143 -13 112 32 326 144 682 129 409 161 530 162 610 0 97 -62 150 -175 149
-77 -2 -140 -16 -320 -74 -285 -91 -411 -93 -492 -5 -58 63 -81 36 -69 -77 10
-87 42 -164 90 -216 49 -54 88 -72 154 -72 62 0 111 17 189 66 150 94 263 155
289 157 28 2 29 0 32 -43 2 -35 -18 -113 -83 -325 -150 -485 -185 -685 -155
-868 15 -92 52 -161 132 -244 87 -89 116 -106 183 -106 61 0 95 17 159 79 47
47 48 47 43 18 -5 -25 -14 -72 -32 -179 -4 -18 -12 -83 -19 -140 -7 -53 -18
-198 -21 -260 -3 -83 13 -122 76 -184 44 -42 120 -86 141 -79 8 3 12 41 14
119 2 97 10 234 14 234 1 0 3 18 4 40 4 42 16 137 21 164 1 9 8 52 15 96 6 44
22 134 35 200 13 66 27 135 30 154 3 19 8 37 10 41 2 4 7 22 10 41 25 147 161
629 237 842 l21 57 22 -48 c38 -83 123 -140 260 -175 33 -9 130 -32 215 -52
407 -95 562 -187 518 -305 -37 -99 -190 -152 -443 -154 -197 -1 -371 30 -416
75 -38 38 -14 42 214 40 315 -2 414 26 363 104 -28 42 -88 65 -231 90 -38 6
-183 7 -210 2 -11 -3 -42 -8 -70 -11 -54 -7 -134 -31 -175 -51 -67 -35 -95
-84 -85 -152 7 -51 74 -130 153 -180 53 -35 166 -81 212 -89 14 -2 35 -6 47
-9 45 -10 131 -18 223 -19 106 -1 215 18 330 59 223 80 332 195 333 353 1 138
-80 236 -253 305 -51 20 -255 73 -431 112 -122 27 -316 96 -331 119 -22 33 46
71 164 91 77 14 130 17 461 29 180 7 330 44 359 90 16 24 8 66 -14 80 -98 61
-466 80 -743 40 -110 -17 -375 -119 -375 -145 0 -5 -9 -13 -19 -18 -15 -9 -10
10 26 97 25 59 47 114 48 122 4 23 -43 104 -84 144 -44 43 -95 58 -104 29z"/>
</g>
</svg>
